<svg width="232" height="36" viewBox="0 0 232 36" fill="none" xmlns="http://www.w3.org/2000/svg">
<path d="M59.1445 23.7173L49.4736 11.9301H44.0912L53.8059 23.7173L43.0847 35.8028H48.4672L59.1445 23.7173Z" fill="#4C39F0"/>
<path d="M25.374 23.7173L35.0449 11.9301H40.4274L30.7127 23.7173L41.4338 35.8028H36.0514L25.374 23.7173Z" fill="#4C39F0"/>
<path d="M74.3914 36C72.0996 36 70.0307 35.5066 68.1845 34.5199C66.3702 33.5013 64.9378 32.0849 63.8874 30.2706C62.8689 28.4244 62.3596 26.2918 62.3596 23.8727C62.3596 21.4854 62.8689 19.3687 63.8874 17.5225C64.9378 15.6764 66.3702 14.244 68.1845 13.2255C70.0307 12.1751 72.0996 11.6499 74.3914 11.6499C78.5293 11.6499 81.6646 12.9072 83.7973 15.4218V0H88.6195V35.2838H83.9405V31.9416C82.6673 33.3422 81.2667 34.3767 79.7389 35.0451C78.2429 35.6817 76.4604 36 74.3914 36ZM75.4896 32.1804C77.463 32.1804 79.1819 31.6711 80.6461 30.6525C82.1421 29.6021 83.1925 28.2016 83.7973 26.4509V21.2944C83.2561 19.5438 82.2217 18.1432 80.6938 17.0928C79.1978 16.0424 77.463 15.5172 75.4896 15.5172C73.9299 15.5172 72.5134 15.8674 71.2402 16.5676C69.9988 17.2679 69.0121 18.2546 68.28 19.5279C67.5797 20.8011 67.2296 22.2493 67.2296 23.8727C67.2296 25.496 67.5797 26.9443 68.28 28.2175C69.0121 29.4907 69.9988 30.4775 71.2402 31.1777C72.5134 31.8462 73.9299 32.1804 75.4896 32.1804Z" fill="#08004A"/>
<path d="M107.439 36C103.205 36 99.879 34.9496 97.4599 32.8488C95.0726 30.7162 93.879 27.7241 93.879 23.8727C93.879 20.1167 94.9453 17.1406 97.0779 14.9443C99.2424 12.748 102.314 11.6499 106.293 11.6499C108.935 11.6499 111.179 12.1592 113.025 13.1777C114.871 14.1645 116.256 15.5491 117.179 17.3316C118.134 19.0822 118.611 21.0875 118.611 23.3475V25.7347H98.4625C98.6217 27.8992 99.5289 29.5225 101.184 30.6048C102.871 31.6552 105.147 32.1804 108.012 32.1804C109.476 32.1804 110.956 32.0531 112.452 31.7984C113.948 31.5119 115.269 31.1459 116.415 30.7003V34.5676C115.396 34.9814 114.043 35.3156 112.356 35.5703C110.701 35.8568 109.062 36 107.439 36ZM114.075 22.3448C114.012 20.1804 113.295 18.5093 111.927 17.3316C110.59 16.122 108.68 15.5172 106.197 15.5172C103.778 15.5172 101.9 16.1379 100.563 17.3793C99.2265 18.6207 98.5262 20.2759 98.4625 22.3448H114.075Z" fill="#08004A"/>
<path d="M123.882 1.90981H145.893V6.01591H128.752V16.6631H141.548V20.5305H128.752V35.2838H123.882V1.90981Z" fill="#08004A"/>
<path d="M158.669 36C156.09 36 153.815 35.5225 151.841 34.5676C149.899 33.5809 148.372 32.1804 147.258 30.366C146.175 28.5199 145.634 26.3554 145.634 23.8727C145.634 21.4217 146.175 19.2732 147.258 17.4271C148.34 15.5809 149.868 14.1645 151.841 13.1777C153.815 12.1592 156.09 11.6499 158.669 11.6499C161.247 11.6499 163.523 12.1592 165.496 13.1777C167.47 14.1645 168.998 15.5809 170.08 17.4271C171.194 19.2732 171.751 21.4217 171.751 23.8727C171.751 26.3554 171.194 28.5199 170.08 30.366C168.998 32.1804 167.47 33.5809 165.496 34.5676C163.523 35.5225 161.247 36 158.669 36ZM158.669 32.1804C161.151 32.1804 163.125 31.4164 164.589 29.8886C166.053 28.3607 166.785 26.3554 166.785 23.8727C166.785 21.2944 166.053 19.2573 164.589 17.7613C163.125 16.2652 161.151 15.5172 158.669 15.5172C156.186 15.5172 154.212 16.2652 152.748 17.7613C151.284 19.2573 150.552 21.2944 150.552 23.8727C150.552 26.3554 151.284 28.3607 152.748 29.8886C154.212 31.4164 156.186 32.1804 158.669 32.1804Z" fill="#08004A"/>
<path d="M176.989 12.366H181.669V16.4721C182.623 15.0716 183.96 14.0371 185.679 13.3687C187.43 12.7003 189.451 12.366 191.743 12.366V16.1379C189.292 16.1379 187.191 16.5358 185.44 17.3316C183.69 18.1273 182.48 19.3846 181.812 21.1034V35.2838H176.989V12.366Z" fill="#08004A"/>
<path d="M196.06 12.366H200.643V15.6605C201.725 14.3236 202.951 13.321 204.32 12.6525C205.688 11.9841 207.105 11.6499 208.569 11.6499C210.415 11.6499 211.879 11.9682 212.961 12.6048C214.044 13.2095 214.839 14.1485 215.349 15.4218C216.367 14.1804 217.609 13.2414 219.073 12.6048C220.569 11.9682 222.065 11.6499 223.561 11.6499C226.362 11.6499 228.383 12.366 229.625 13.7984C230.866 15.1989 231.487 17.2838 231.487 20.0531V35.2838H226.808V20.6737C226.808 18.7958 226.458 17.4748 225.757 16.7109C225.057 15.9151 223.863 15.5172 222.176 15.5172C219.757 15.5172 217.784 16.5676 216.256 18.6684C216.32 19.1459 216.351 19.9257 216.351 21.008V35.2838H211.672V20.6737C211.672 18.7958 211.354 17.4748 210.717 16.7109C210.081 15.9151 208.935 15.5172 207.28 15.5172C204.861 15.5172 202.696 16.8859 200.786 19.6233V35.2838H196.06V12.366Z" fill="#08004A"/>
<path d="M0 1.90981H4.87003V35.2838H0V1.90981ZM5.10875 18.2865L20.3395 1.90981H26.2599L11.0292 18.2865L27.2149 35.2838H21.2944L5.10875 18.2865Z" fill="#08004A"/>
</svg>
